<svg xmlns="http://www.w3.org/2000/svg" width="16px" height="16px" viewBox="0 0 16 16" version="1.1">
    <g id="surface1">
        <path style=" stroke:none;fill-rule:nonzero;fill:rgb(100%,100%,100%);fill-opacity:1;" d="M 12.367188 8.5 C 12.390625 10.921875 14.492188 11.726562 14.515625 11.738281 C 14.496094 11.796875 14.179688 12.886719 13.40625 14.015625 C 12.742188 14.988281 12.046875 15.960938 10.957031 15.980469 C 9.886719 16 9.542969 15.34375 8.316406 15.34375 C 7.09375 15.34375 6.710938 15.960938 5.695312 16 C 4.644531 16.039062 3.839844 14.945312 3.167969 13.976562 C 1.796875 11.988281 0.746094 8.359375 2.15625 5.914062 C 2.855469 4.695312 4.105469 3.925781 5.464844 3.90625 C 6.5 3.886719 7.476562 4.601562 8.105469 4.601562 C 8.738281 4.601562 9.921875 3.742188 11.171875 3.867188 C 11.691406 3.890625 13.15625 4.078125 14.097656 5.457031 C 14.019531 5.503906 12.347656 6.476562 12.367188 8.5 M 10.355469 2.554688 C 10.914062 1.878906 11.289062 0.9375 11.1875 0 C 10.378906 0.03125 9.40625 0.535156 8.828125 1.210938 C 8.3125 1.8125 7.859375 2.769531 7.980469 3.6875 C 8.878906 3.757812 9.792969 3.230469 10.355469 2.554688 "/>
    </g>
</svg>
