<svg xmlns="http://www.w3.org/2000/svg" width="16" height="16" viewBox="0 0 16 16">
    <path fill="#FFF" fill-rule="nonzero" d="M14.613 0H1.165A1.152 1.152 0 0 0 0 1.138v13.504a1.152 1.152 0 0 0 1.165 1.139h13.448a1.154 1.154 0 0 0 1.168-1.139V1.138A1.154 1.154 0 0 0 14.613 0zM4.68 13.448H2.34v-7.53h2.34v7.53zM3.507 4.887a1.357 1.357 0 1 1 .006-2.714 1.357 1.357 0 0 1-.006 2.714zm9.937 8.56h-2.336V9.786c0-.876-.015-1.996-1.216-1.996-1.218 0-1.404.95-1.404 1.933v3.726H6.149v-7.53h2.244v1.029h.032c.313-.593 1.076-1.216 2.215-1.216 2.37 0 2.808 1.559 2.808 3.586l-.004 4.13z"/>
</svg>
